<svg width="52" height="52" viewBox="0 0 52 52" fill="none" xmlns="http://www.w3.org/2000/svg">
<g clip-path="url(#clip0_108_40)">
<path d="M20.7988 28.2898C20.964 25.3444 22.4039 22.7419 24.5857 20.903C26.7207 19.0952 29.5882 17.9888 32.7362 17.9888C35.8686 17.9888 38.7361 19.0937 40.8711 20.903C43.0529 22.7419 44.4866 25.3444 44.658 28.2898C44.8232 31.3132 43.6061 34.1339 41.4789 36.2221C39.2971 38.3416 36.2115 39.6818 32.7362 39.6818C29.2609 39.6818 26.1597 38.3509 23.9935 36.2221C21.8585 34.1339 20.6429 31.3288 20.8143 28.3054L20.7988 28.2898Z" fill="white"/>
<path d="M27.3283 27.9291C27.4132 26.4155 28.1532 25.0781 29.2744 24.1331C30.3716 23.2041 31.8451 22.6355 33.4629 22.6355C35.0726 22.6355 36.5461 23.2033 37.6433 24.1331C38.7645 25.0781 39.5013 26.4155 39.5894 27.9291C39.6742 29.4828 39.0488 30.9323 37.9556 32.0054C36.8344 33.0946 35.2488 33.7833 33.4629 33.7833C31.677 33.7833 30.0833 33.0994 28.9701 32.0054C27.8729 30.9323 27.2483 29.4908 27.3363 27.9371L27.3283 27.9291Z" fill="#265787"/>
<path d="M17.7183 31.1326C17.7287 31.7252 17.9177 32.8785 18.2012 33.7754C18.797 35.6814 19.8109 37.4433 21.2124 38.989C22.6539 40.5826 24.4318 41.864 26.482 42.777C28.6363 43.73 30.9747 44.2185 33.4013 44.2185C35.8279 44.2153 38.1664 43.7188 40.3207 42.753C42.3708 41.832 44.1487 40.5506 45.5903 38.9489C46.9998 37.3873 48.0088 35.6254 48.6014 33.7194C48.9018 32.7584 49.0916 31.7813 49.1676 30.8043C49.2421 29.8432 49.2109 28.8742 49.074 27.9052C48.8065 26.0232 48.153 24.2533 47.1519 22.6516C46.2389 21.17 45.0537 19.8807 43.6442 18.7915L43.6474 18.7891L29.4724 7.89756C29.4595 7.88795 29.4491 7.87753 29.4355 7.86872C28.5065 7.15436 26.9369 7.15677 25.9198 7.87273C24.8867 8.5967 24.7666 9.79476 25.6875 10.5476L25.6835 10.5516L31.6018 15.3647L13.5827 15.3839H13.5587C12.0691 15.3855 10.6356 16.3609 10.3553 17.6023C10.0637 18.8596 11.076 19.9087 12.6297 19.9087L12.6273 19.9143L21.757 19.8967L5.41962 32.39C5.3988 32.4052 5.37637 32.4212 5.35715 32.4364C3.81952 33.6136 3.32299 35.5757 4.29202 36.8091C5.27707 38.0664 7.36728 38.0744 8.92093 36.8162L17.8104 29.5285C17.8104 29.5285 17.6806 30.5136 17.691 31.0982L17.7183 31.1326ZM40.6226 34.4241C38.7886 36.2901 36.2179 37.3552 33.447 37.3552C30.668 37.36 28.0973 36.3141 26.2633 34.4481C25.3664 33.5352 24.7097 32.4941 24.3013 31.3809C23.9032 30.2837 23.7487 29.1225 23.8512 27.9532C23.9481 26.808 24.2892 25.7109 24.8362 24.7258C25.3712 23.7568 26.1096 22.8759 27.0145 22.1311C28.8004 20.6815 31.0668 19.8887 33.4374 19.8887C35.8159 19.8855 38.0823 20.6647 39.8682 22.115C40.7731 22.855 41.5099 23.7328 42.0465 24.7018C42.5935 25.6868 42.9354 26.776 43.0315 27.9292C43.1324 29.0985 42.9779 30.2597 42.5799 31.3569C42.173 32.478 41.5147 33.5191 40.6178 34.4321L40.6226 34.4241Z" fill="#EA7600"/>
</g>
<defs>
<clipPath id="clip0_108_40">
<rect width="46.473" height="38" fill="white" transform="translate(3.26367 7)"/>
</clipPath>
</defs>
</svg>
