<svg width="52" height="52" viewBox="0 0 52 52" fill="none" xmlns="http://www.w3.org/2000/svg">
<path d="M11.575 42.0015L8.36523 6H43.6352L40.422 41.9958L25.9787 46L11.575 42.0015Z" fill="#264DE4"/>
<path d="M37.6709 39.7038L40.4169 8.9436H26V42.9394L37.6709 39.7038Z" fill="#2965F1"/>
<path d="M15.7235 22.2961L16.1192 26.7115H26V22.2961H15.7235ZM15.3296 17.7746H26V13.3591H14.9282L15.3296 17.7746ZM26 33.7634L25.9806 33.7686L21.0631 32.4408L20.7488 28.9192H16.3163L16.935 35.8521L25.9797 38.363L26 38.3573V33.7634Z" fill="#EBEBEB"/>
<path d="M25.9844 22.2961V26.7115H31.4215L30.909 32.438L25.9844 33.7671V38.3608L35.0363 35.8521L35.1027 35.1061L36.1402 23.4817L36.248 22.2961L37.0451 13.3591H25.9844V17.7746H32.2062L31.8043 22.2961H25.9844Z" fill="white"/>
</svg>
