<svg width="52" height="52" viewBox="0 0 52 52" fill="none" xmlns="http://www.w3.org/2000/svg">
<g clip-path="url(#clip0_108_88)">
<g clip-path="url(#clip1_108_88)">
<path d="M3.36952 22.4702C3.26709 22.4702 3.24148 22.419 3.2927 22.3422L3.83048 21.6507C3.8817 21.5739 4.00974 21.5227 4.11217 21.5227H13.2544C13.3569 21.5227 13.3825 21.5995 13.3313 21.6764L12.8959 22.3422C12.8447 22.419 12.7167 22.4958 12.6398 22.4958L3.36952 22.4702Z" fill="#00ACD7"/>
<path d="M-0.497663 24.8262C-0.600098 24.8262 -0.625706 24.775 -0.574489 24.6981L-0.0367091 24.0067C0.0145081 23.9299 0.142551 23.8787 0.244985 23.8787H11.9225C12.0249 23.8787 12.0761 23.9555 12.0505 24.0323L11.8457 24.6469C11.8201 24.7494 11.7176 24.8006 11.6152 24.8006L-0.497663 24.8262Z" fill="#00ACD7"/>
<path d="M5.6996 27.1821C5.59717 27.1821 5.57156 27.1053 5.62278 27.0285L5.9813 26.3883C6.03251 26.3114 6.13495 26.2346 6.23738 26.2346H11.3591C11.4615 26.2346 11.5127 26.3114 11.5127 26.4139L11.4615 27.0285C11.4615 27.1309 11.3591 27.2077 11.2823 27.2077L5.6996 27.1821Z" fill="#00ACD7"/>
<path d="M32.2813 22.0093C30.6679 22.419 29.5668 22.7263 27.979 23.1361C27.5949 23.2385 27.5693 23.2641 27.2364 22.88C26.8522 22.4446 26.5706 22.1629 26.0328 21.9069C24.4194 21.113 22.8573 21.3435 21.3976 22.291C19.6562 23.4178 18.7599 25.0823 18.7855 27.1566C18.8112 29.2053 20.2196 30.8955 22.2427 31.1772C23.9841 31.4076 25.4438 30.793 26.5962 29.487C26.8266 29.2053 27.0315 28.898 27.2876 28.5395C26.3657 28.5395 25.2133 28.5395 22.3451 28.5395C21.8074 28.5395 21.6793 28.2066 21.8586 27.7712C22.1915 26.9774 22.8061 25.6457 23.1646 24.9799C23.2414 24.8262 23.4207 24.5701 23.8048 24.5701C25.1109 24.5701 29.9253 24.5701 33.1263 24.5701C33.0751 25.2616 33.0751 25.953 32.9727 26.6444C32.691 28.4883 31.9996 30.1784 30.8728 31.6637C29.029 34.0965 26.6218 35.6074 23.5743 36.0172C21.0647 36.3501 18.7343 35.8635 16.6856 34.327C14.7906 32.8929 13.715 30.9979 13.4334 28.6419C13.1004 25.8506 13.9199 23.3409 15.6101 21.1386C17.4283 18.757 19.8355 17.2461 22.7805 16.7083C25.1877 16.273 27.4925 16.5547 29.5668 17.9631C30.924 18.8594 31.8971 20.0886 32.5373 21.5739C32.691 21.8044 32.5886 21.9325 32.2813 22.0093Z" fill="#00ACD7"/>
<path d="M40.7579 36.1708C38.4276 36.1195 36.302 35.4537 34.5094 33.9172C32.9985 32.6112 32.051 30.9466 31.7437 28.9747C31.2828 26.081 32.0766 23.5201 33.818 21.241C35.6874 18.7825 37.941 17.5021 40.9884 16.9643C43.6005 16.5034 46.0589 16.7595 48.2869 18.2704C50.3099 19.6532 51.5647 21.5227 51.8977 23.9811C52.333 27.4382 51.3343 30.2552 48.9527 32.6624C47.2625 34.3782 45.1882 35.4537 42.8066 35.9403C42.1152 36.0683 41.4238 36.0939 40.7579 36.1708ZM46.8528 25.8249C46.8272 25.492 46.8272 25.2359 46.7759 24.9798C46.315 22.4446 43.9846 21.0105 41.5518 21.5739C39.1702 22.1117 37.6337 23.6226 37.0703 26.0298C36.6093 28.0272 37.5825 30.0503 39.4263 30.8698C40.8348 31.4844 42.2432 31.4076 43.6005 30.7161C45.6236 29.6662 46.7247 28.0272 46.8528 25.8249Z" fill="#00ACD7"/>
</g>
</g>
<defs>
<clipPath id="clip0_108_88">
<rect width="52" height="52" fill="white"/>
</clipPath>
<clipPath id="clip1_108_88">
<rect width="52.6" height="19.6418" fill="white" transform="translate(-0.600098 16.5291)"/>
</clipPath>
</defs>
</svg>
