<svg width="52" height="52" viewBox="0 0 52 52" fill="none" xmlns="http://www.w3.org/2000/svg">
<g clip-path="url(#clip0_108_56)">
<path d="M11.0093 0H13.3452V2.31563H15.4983V0H17.8343V7.00782H15.4983V4.67188H13.3655V7.00782H11.0093M20.9218 2.33594H18.8601V0H25.3296V2.33594H23.2577V7.00782H20.9218M26.3554 0H28.803L30.3062 2.46797L31.8093 0H34.257V7.00782H31.921V3.53438L30.2859 6.05313L28.6507 3.53438V7.00782H26.3554M35.4148 0H37.7507V4.69219H41.0616V7.00782H35.4148" fill="white"/>
<path d="M10.9282 47.8361L7.57666 10.2173H44.4236L41.072 47.8158L25.9696 52.0001" fill="#E44D26"/>
<path d="M26 48.8008V13.3047H41.0617L38.1875 45.3985" fill="#F16529"/>
<path d="M14.4219 17.9055H26V22.5165H19.4797L19.9063 27.2391H26V31.8399H15.6813M15.8844 34.1555H20.5156L20.8406 37.8422L26 39.2235V44.0376L16.5344 41.3969" fill="#EBEBEB"/>
<path d="M37.5368 17.9055H25.979V22.5165H37.1103M36.6939 27.2391H25.979V31.8501H31.6665L31.1282 37.8423L25.979 39.2235V44.0173L35.4243 41.3969" fill="white"/>
</g>
<defs>
<clipPath id="clip0_108_56">
<rect width="52" height="52" fill="white"/>
</clipPath>
</defs>
</svg>
