<svg width="52" height="52" viewBox="0 0 52 52" fill="none" xmlns="http://www.w3.org/2000/svg">
<g clip-path="url(#clip0_108_73)">
<path d="M44 8H8V44H44V8Z" fill="#F7DF1E"/>
<path d="M32.183 36.1252C32.9081 37.3092 33.8516 38.1795 35.5201 38.1795C36.9219 38.1795 37.8173 37.479 37.8173 36.511C37.8173 35.351 36.8973 34.9401 35.3544 34.2652L34.5087 33.9024C32.0676 32.8624 30.4459 31.5595 30.4459 28.8052C30.4459 26.2681 32.379 24.3367 35.4001 24.3367C37.551 24.3367 39.0973 25.0852 40.2116 27.0452L37.5773 28.7367C36.9973 27.6967 36.3716 27.287 35.4001 27.287C34.4093 27.287 33.7813 27.9155 33.7813 28.7367C33.7813 29.7515 34.4099 30.1624 35.8613 30.791L36.707 31.1532C39.5813 32.3858 41.2041 33.6424 41.2041 36.4675C41.2041 39.5132 38.8116 41.1818 35.5984 41.1818C32.4567 41.1818 30.427 39.6847 29.4339 37.7224L32.183 36.1252ZM20.2327 36.4184C20.7641 37.3612 21.2476 38.1584 22.4099 38.1584C23.5213 38.1584 24.2224 37.7235 24.2224 36.0327V24.5298H27.6053V36.0784C27.6053 39.5812 25.5516 41.1755 22.5539 41.1755C19.8453 41.1755 18.2767 39.7738 17.479 38.0855L20.2327 36.4184Z" fill="black"/>
</g>
<defs>
<clipPath id="clip0_108_73">
<rect width="36" height="36" fill="white" transform="translate(8 8)"/>
</clipPath>
</defs>
</svg>
