<svg width="52" height="52" viewBox="0 0 52 52" fill="none" xmlns="http://www.w3.org/2000/svg">
<g clip-path="url(#clip0_108_50)">
<path fill-rule="evenodd" clip-rule="evenodd" d="M44.7139 14.9619C44.7279 15.014 44.7351 15.0677 44.7353 15.1217V23.5111C44.7353 23.6188 44.7068 23.7245 44.6529 23.8177C44.5989 23.9109 44.5213 23.9881 44.4279 24.0417L37.3865 28.0957V36.1311C37.3865 36.3497 37.2703 36.5516 37.0807 36.6617L22.3825 45.1229C22.3488 45.142 22.3121 45.1543 22.2754 45.1673C22.2617 45.1719 22.2487 45.1803 22.2342 45.1841C22.1314 45.2112 22.0234 45.2112 21.9207 45.1841C21.9038 45.1795 21.8885 45.1703 21.8725 45.1642C21.8388 45.152 21.8037 45.1413 21.7716 45.1229L7.07642 36.6617C6.98306 36.6081 6.9055 36.5308 6.85153 36.4376C6.79757 36.3445 6.76912 36.2387 6.76904 36.1311V10.963C6.76904 10.9079 6.77669 10.8544 6.79045 10.8024C6.79504 10.7848 6.80574 10.7688 6.81186 10.7512C6.82333 10.7191 6.83404 10.6862 6.85086 10.6564C6.86233 10.6365 6.87915 10.6204 6.89291 10.6021C6.9105 10.5776 6.92655 10.5524 6.9472 10.531C6.96478 10.5134 6.98772 10.5004 7.0076 10.4851C7.02978 10.4667 7.04966 10.4469 7.07489 10.4323L14.4236 6.20171C14.5166 6.14817 14.6221 6.12 14.7295 6.12C14.8368 6.12 14.9423 6.14817 15.0353 6.20171L22.3833 10.4323H22.3848C22.4093 10.4476 22.4299 10.4667 22.4521 10.4843C22.472 10.4996 22.4941 10.5134 22.5117 10.5302C22.5331 10.5524 22.5484 10.5776 22.5668 10.6021C22.5798 10.6204 22.5973 10.6365 22.6081 10.6564C22.6256 10.6869 22.6356 10.7191 22.6478 10.7512C22.6539 10.7688 22.6646 10.7848 22.6692 10.8032C22.6833 10.8553 22.6905 10.909 22.6906 10.963V26.6827L28.8137 23.1571V15.121C28.8137 15.0674 28.8213 15.0131 28.8351 14.9619C28.8404 14.9436 28.8504 14.9275 28.8565 14.9099C28.8687 14.8778 28.8794 14.8449 28.8962 14.8151C28.9077 14.7952 28.9245 14.7792 28.9375 14.7608C28.9559 14.7363 28.9712 14.7111 28.9926 14.6897C29.0102 14.6721 29.0324 14.6591 29.0522 14.6438C29.0752 14.6255 29.0951 14.6056 29.1195 14.5911L36.469 10.3605C36.562 10.3068 36.6675 10.2786 36.7748 10.2786C36.8822 10.2786 36.9877 10.3068 37.0807 10.3605L44.4286 14.5911C44.4546 14.6064 44.4745 14.6255 44.4975 14.6431C44.5166 14.6584 44.5388 14.6721 44.5563 14.6889C44.5777 14.7111 44.593 14.7363 44.6114 14.7608C44.6252 14.7792 44.642 14.7952 44.6527 14.8151C44.6703 14.8449 44.6802 14.8778 44.6924 14.9099C44.6993 14.9275 44.7093 14.9436 44.7139 14.9619ZM43.5103 23.1571V16.1807L40.9389 17.661L37.3865 19.7063V26.6827L43.5111 23.1571H43.5103ZM36.1624 35.777V28.7961L32.6681 30.7917L22.6899 36.4866V43.5333L36.1624 35.777ZM7.99396 12.022V35.777L21.465 43.5325V36.4874L14.4274 32.5045L14.4251 32.503L14.4221 32.5014C14.3984 32.4877 14.3785 32.4678 14.3563 32.451C14.3372 32.4357 14.315 32.4234 14.2982 32.4066L14.2967 32.4043C14.2768 32.3852 14.263 32.3615 14.2462 32.3401C14.2309 32.3194 14.2126 32.3019 14.2003 32.2805L14.1996 32.2782C14.1858 32.2552 14.1774 32.2277 14.1675 32.2017C14.1575 32.1788 14.1445 32.1573 14.1384 32.1329C14.1308 32.1038 14.1292 32.0725 14.1262 32.0427C14.1231 32.0197 14.117 31.9968 14.117 31.9738V31.9723V15.5476L10.5654 13.5015L7.99396 12.022ZM14.7302 7.43886L8.60794 10.963L14.7287 14.4871L20.8502 10.9622L14.7287 7.43886H14.7302ZM17.9141 29.4323L21.4657 27.3877V12.022L18.8943 13.5023L15.3419 15.5476V30.9133L17.9141 29.4323ZM36.7748 11.5976L30.6533 15.1217L36.7748 18.6458L42.8956 15.121L36.7748 11.5976ZM36.1624 19.7063L32.61 17.661L30.0386 16.1807V23.1571L33.5902 25.2016L36.1624 26.6827V19.7063ZM22.0766 35.4276L31.0555 30.3016L35.5438 27.7402L29.4269 24.2183L22.384 28.2731L15.9651 31.9685L22.0766 35.4276Z" fill="#FF2D20"/>
</g>
<defs>
<clipPath id="clip0_108_50">
<rect width="38.2308" height="39.76" fill="white" transform="translate(6.76904 6.12)"/>
</clipPath>
</defs>
</svg>
