<svg width="52" height="52" viewBox="0 0 52 52" fill="none" xmlns="http://www.w3.org/2000/svg">
<g clip-path="url(#clip0_108_7)">
<path d="M24.397 5.66837C22.9902 5.67491 21.6467 5.79489 20.4646 6.00406C16.9823 6.61928 16.35 7.90698 16.35 10.2817V13.418H24.5792V14.4635H16.35H13.2617C10.87 14.4635 8.77586 15.901 8.12082 18.6356C7.36525 21.7701 7.33173 23.7261 8.12082 26.9991C8.70578 29.4354 10.1027 31.1713 12.4944 31.1713H15.3238V27.4115C15.3238 24.6953 17.6739 22.2994 20.4646 22.2994H28.6843C30.9723 22.2994 32.7989 20.4155 32.7989 18.1177V10.2817C32.7989 8.05156 30.9175 6.37627 28.6843 6.00406C27.2706 5.76874 25.8038 5.66184 24.397 5.66837ZM19.9467 8.19085C20.7967 8.19085 21.4909 8.89634 21.4909 9.7638C21.4909 10.6282 20.7967 11.3272 19.9467 11.3272C19.0936 11.3272 18.4025 10.6282 18.4025 9.7638C18.4025 8.89634 19.0936 8.19085 19.9467 8.19085Z" fill="url(#paint0_linear_108_7)"/>
<path d="M33.8257 14.4635V18.1177C33.8257 20.9508 31.4238 23.3353 28.6848 23.3353H20.4652C18.2137 23.3353 16.3506 25.2623 16.3506 27.5171V35.353C16.3506 37.5832 18.2899 38.895 20.4652 39.5348C23.0701 40.3007 25.5681 40.4392 28.6848 39.5348C30.7565 38.9349 32.7994 37.7278 32.7994 35.353V32.2167H24.5798V31.1713H32.7994H36.914C39.3057 31.1713 40.1969 29.5031 41.0286 26.9991C41.8878 24.4214 41.8512 21.9424 41.0286 18.6357C40.4376 16.2548 39.3087 14.4635 36.914 14.4635H33.8257ZM29.2027 34.3076C30.0558 34.3076 30.7469 35.0066 30.7469 35.871C30.7469 36.7384 30.0558 37.4439 29.2027 37.4439C28.3527 37.4439 27.6586 36.7384 27.6586 35.871C27.6586 35.0066 28.3527 34.3076 29.2027 34.3076Z" fill="url(#paint1_linear_108_7)"/>
<path opacity="0.44382" d="M24.6728 46.9999C30.7633 46.9999 35.7007 46.0425 35.7007 44.8615C35.7007 43.6805 30.7633 42.7231 24.6728 42.7231C18.5823 42.7231 13.645 43.6805 13.645 44.8615C13.645 46.0425 18.5823 46.9999 24.6728 46.9999Z" fill="url(#paint2_radial_108_7)"/>
</g>
<defs>
<linearGradient id="paint0_linear_108_7" x1="7.5415" y1="5.66809" x2="26.5172" y2="21.838" gradientUnits="userSpaceOnUse">
<stop stop-color="#5A9FD4"/>
<stop offset="1" stop-color="#306998"/>
</linearGradient>
<linearGradient id="paint1_linear_108_7" x1="29.005" y1="35.6073" x2="22.1972" y2="26.0676" gradientUnits="userSpaceOnUse">
<stop stop-color="#FFD43B"/>
<stop offset="1" stop-color="#FFE873"/>
</linearGradient>
<radialGradient id="paint2_radial_108_7" cx="0" cy="0" r="1" gradientUnits="userSpaceOnUse" gradientTransform="translate(24.6728 44.8615) rotate(-90) scale(2.13839 9.39912)">
<stop stop-color="#B8B8B8" stop-opacity="0.498039"/>
<stop offset="1" stop-color="#7F7F7F" stop-opacity="0"/>
</radialGradient>
<clipPath id="clip0_108_7">
<rect width="37.6772" height="41.3319" fill="white" transform="translate(7.5415 5.66809)"/>
</clipPath>
</defs>
</svg>
