<svg width="52" height="52" viewBox="0 0 52 52" fill="none" xmlns="http://www.w3.org/2000/svg">
<g clip-path="url(#clip0_108_31)">
<path d="M26.1852 29.8353C28.4313 29.8353 30.2522 28.0144 30.2522 25.7683C30.2522 23.5222 28.4313 21.7013 26.1852 21.7013C23.939 21.7013 22.1182 23.5222 22.1182 25.7683C22.1182 28.0144 23.939 29.8353 26.1852 29.8353Z" fill="#61DAFB"/>
<path d="M26.1852 34.1007C38.2377 34.1007 48.0082 30.3702 48.0082 25.7683C48.0082 21.1665 38.2377 17.4359 26.1852 17.4359C14.1328 17.4359 4.3623 21.1665 4.3623 25.7683C4.3623 30.3702 14.1328 34.1007 26.1852 34.1007Z" stroke="#61DAFB" stroke-width="1.9839"/>
<path d="M18.9691 29.9345C24.9953 40.3722 33.1113 46.9684 37.0966 44.6675C41.0819 42.3666 39.4275 32.0398 33.4012 21.6021C27.375 11.1643 19.259 4.56815 15.2737 6.86908C11.2884 9.17 12.9428 19.4967 18.9691 29.9345Z" stroke="#61DAFB" stroke-width="1.9839"/>
<path d="M18.9689 21.602C12.9427 32.0397 11.2882 42.3665 15.2735 44.6674C19.2588 46.9683 27.3748 40.3721 33.401 29.9344C39.4273 19.4966 41.0818 9.16989 37.0964 6.86896C33.1111 4.56803 24.9951 11.1642 18.9689 21.602Z" stroke="#61DAFB" stroke-width="1.9839"/>
</g>
<defs>
<clipPath id="clip0_108_31">
<rect width="45.6298" height="40.5976" fill="white" transform="translate(3.37012 5.46948)"/>
</clipPath>
</defs>
</svg>
