<svg width="52" height="52" viewBox="0 0 52 52" fill="none" xmlns="http://www.w3.org/2000/svg">
<g clip-path="url(#clip0_108_79)">
<mask id="mask0_108_79" style="mask-type:luminance" maskUnits="userSpaceOnUse" x="6" y="14" width="41" height="25">
<path d="M6 14H46.9091V38.5455H6V14Z" fill="white"/>
</mask>
<g mask="url(#mask0_108_79)">
<path fill-rule="evenodd" clip-rule="evenodd" d="M26.4545 14C21 14 17.5909 16.7273 16.2273 22.1818C18.2727 19.4545 20.6591 18.4318 23.3864 19.1136C24.9424 19.5023 26.0545 20.6318 27.2856 21.8811C29.2909 23.9167 31.6121 26.2727 36.6818 26.2727C42.1364 26.2727 45.5455 23.5455 46.9091 18.0909C44.8636 20.8182 42.4773 21.8409 39.75 21.1591C38.1939 20.7705 37.0818 19.6409 35.8508 18.3917C33.8455 16.3561 31.5242 14 26.4545 14ZM16.2273 26.2727C10.7727 26.2727 7.36364 29 6 34.4545C8.04545 31.7273 10.4318 30.7045 13.1591 31.3864C14.7152 31.7758 15.8273 32.9045 17.0583 34.1538C19.0636 36.1894 21.3848 38.5455 26.4545 38.5455C31.9091 38.5455 35.3182 35.8182 36.6818 30.3636C34.6364 33.0909 32.25 34.1136 29.5227 33.4318C27.9667 33.0432 26.8545 31.9136 25.6235 30.6644C23.6182 28.6288 21.297 26.2727 16.2273 26.2727Z" fill="#38BDF8"/>
</g>
</g>
<defs>
<clipPath id="clip0_108_79">
<rect width="40.9091" height="25" fill="white" transform="translate(6 14)"/>
</clipPath>
</defs>
</svg>
